<?xml version="1.0" encoding="utf-8"?>
<svg viewBox="0 0 500 500" xmlns="http://www.w3.org/2000/svg">
  <g id="svgGroup" stroke-linecap="round" fill-rule="evenodd" font-size="9pt" stroke="#ff8000" stroke-width="0.25mm" fill="#ff8000" style="stroke:#ff8000;stroke-width:0.25mm;fill:#ff8000" transform="matrix(1, 0, 0, 1, 72.646027, 337.271484)">
    <path d="M 71.338 40.332 L 71.338 75.977 L 66.504 75.977 L 66.504 40.527 A 25.605 25.605 0 0 0 66.222 36.591 Q 65.903 34.545 65.222 32.918 A 10.26 10.26 0 0 0 63.135 29.688 Q 59.766 26.221 54.248 26.221 A 20.843 20.843 0 0 0 49.334 26.767 A 13.985 13.985 0 0 0 42.407 30.64 Q 38.135 35.059 38.135 44.531 L 38.135 75.977 L 33.252 75.977 L 33.252 40.527 A 25.994 25.994 0 0 0 33.053 37.213 Q 32.835 35.516 32.376 34.098 A 12.605 12.605 0 0 0 31.714 32.446 A 11.605 11.605 0 0 0 29.877 29.7 A 9.733 9.733 0 0 0 27.441 27.759 A 11.801 11.801 0 0 0 23.537 26.419 A 15.646 15.646 0 0 0 20.996 26.221 A 20.181 20.181 0 0 0 16.73 26.651 A 15.29 15.29 0 0 0 12.451 28.247 A 12.762 12.762 0 0 0 7.747 32.872 A 16.44 16.44 0 0 0 6.885 34.497 A 19.253 19.253 0 0 0 5.558 38.587 Q 5.137 40.569 4.999 42.879 A 39.159 39.159 0 0 0 4.932 45.215 L 4.932 75.977 L 0 75.977 L 0 22.9 L 4.004 22.9 L 4.736 31.592 L 5.029 31.592 A 18.679 18.679 0 0 1 8.141 27.222 A 21.185 21.185 0 0 1 8.545 26.807 A 15.886 15.886 0 0 1 12.154 24.127 A 19.579 19.579 0 0 1 13.989 23.242 Q 17.141 21.915 21.374 21.876 A 27.935 27.935 0 0 1 21.631 21.875 Q 27.344 21.875 31.323 24.438 Q 35.303 27.002 36.865 32.031 L 37.207 32.031 A 16.231 16.231 0 0 1 43.872 24.561 A 18.613 18.613 0 0 1 49.898 22.318 A 25.686 25.686 0 0 1 54.785 21.875 Q 62.451 21.875 66.895 26.318 A 13.463 13.463 0 0 1 69.971 31.292 Q 70.74 33.391 71.076 35.989 A 33.88 33.88 0 0 1 71.338 40.332 Z M 242.822 22.9 L 247.754 22.9 L 247.754 75.977 L 243.75 75.977 L 243.018 66.406 L 242.725 66.406 A 17.634 17.634 0 0 1 239.249 71.351 A 20.17 20.17 0 0 1 238.867 71.729 A 17.443 17.443 0 0 1 234.707 74.663 A 21.255 21.255 0 0 1 232.764 75.537 A 19.8 19.8 0 0 1 228.594 76.642 Q 226.639 76.948 224.435 76.953 A 32.238 32.238 0 0 1 224.365 76.953 Q 218.262 76.953 214.136 74.829 A 13.848 13.848 0 0 1 207.91 68.408 A 19.166 19.166 0 0 1 206.421 63.991 Q 205.811 61.14 205.811 57.666 L 205.811 22.9 L 210.742 22.9 L 210.742 57.178 A 28.032 28.032 0 0 0 211.042 61.428 Q 211.376 63.601 212.083 65.338 A 11.195 11.195 0 0 0 214.331 68.896 A 11.446 11.446 0 0 0 219.427 71.937 Q 221.222 72.476 223.377 72.611 A 23.637 23.637 0 0 0 224.854 72.656 Q 230.052 72.656 233.771 70.888 A 14.821 14.821 0 0 0 234.692 70.41 A 14.024 14.024 0 0 0 240.126 64.837 A 17.699 17.699 0 0 0 240.747 63.599 Q 242.457 59.836 242.758 54.53 A 41.253 41.253 0 0 0 242.822 52.197 L 242.822 22.9 Z M 183.984 32.617 L 184.375 32.617 A 118.418 118.418 0 0 1 184.204 29.932 A 145.692 145.692 0 0 1 184.082 27.051 A 191.78 191.78 0 0 1 184.009 24.194 A 146.551 146.551 0 0 1 183.984 21.582 L 183.984 0 L 188.916 0 L 188.916 75.977 L 184.912 75.977 L 184.277 66.26 L 183.984 66.26 Q 182.666 69.189 180.347 71.631 A 15.983 15.983 0 0 1 176.222 74.73 A 19.364 19.364 0 0 1 174.561 75.513 A 17.736 17.736 0 0 1 170.87 76.57 Q 169.13 76.881 167.142 76.94 A 31.741 31.741 0 0 1 166.211 76.953 A 27.5 27.5 0 0 1 159.482 76.179 A 18.201 18.201 0 0 1 149.634 70.093 A 22.171 22.171 0 0 1 145.696 62.739 Q 144.656 59.559 144.234 55.699 A 51.586 51.586 0 0 1 143.945 50.098 A 50.511 50.511 0 0 1 144.532 42.131 Q 145.822 34.07 149.951 29.102 A 19.59 19.59 0 0 1 162.837 22.129 A 28.343 28.343 0 0 1 166.699 21.875 Q 171.108 21.875 174.412 23.181 A 15.44 15.44 0 0 1 174.683 23.291 A 17.616 17.616 0 0 1 178.632 25.548 A 15.497 15.497 0 0 1 180.396 27.124 A 17.524 17.524 0 0 1 183.984 32.617 Z M 324.121 40.381 L 324.121 75.977 L 320.313 75.977 L 319.434 66.699 L 319.141 66.699 Q 317.432 69.678 314.99 71.997 A 16.544 16.544 0 0 1 310.812 74.864 A 20.162 20.162 0 0 1 309.009 75.635 Q 305.469 76.953 300.391 76.953 A 25.847 25.847 0 0 1 296.471 76.671 Q 293.786 76.259 291.626 75.244 A 12.983 12.983 0 0 1 287.293 72.024 A 12.574 12.574 0 0 1 286.011 70.264 Q 284.033 66.992 284.033 62.305 A 15.109 15.109 0 0 1 284.992 56.803 Q 286.417 53.127 289.96 50.675 A 17.317 17.317 0 0 1 290.576 50.269 A 24.887 24.887 0 0 1 296.278 47.681 Q 301.708 45.942 309.371 45.606 A 400.842 400.842 0 0 1 309.375 45.605 L 319.238 45.117 L 319.238 41.26 Q 319.238 33.105 316.016 29.639 A 10.249 10.249 0 0 0 311.339 26.812 Q 309.735 26.332 307.812 26.212 A 21.165 21.165 0 0 0 306.494 26.172 A 29.363 29.363 0 0 0 298.608 27.222 A 40.939 40.939 0 0 0 293.106 29.197 A 48.215 48.215 0 0 0 290.918 30.225 L 289.355 26.123 Q 293.164 24.316 297.534 23.145 A 35.1 35.1 0 0 1 306.391 21.974 A 38.921 38.921 0 0 1 306.689 21.973 Q 312.534 21.973 316.413 23.937 A 12.855 12.855 0 0 1 319.775 26.367 Q 322.998 29.626 323.831 35.758 A 34.43 34.43 0 0 1 324.121 40.381 Z M 369.678 22.9 L 368.896 27.441 A 24.773 24.773 0 0 0 365.625 26.782 A 25.313 25.313 0 0 0 363.454 26.593 A 30.707 30.707 0 0 0 362.061 26.563 A 17.073 17.073 0 0 0 358.293 26.962 A 13.848 13.848 0 0 0 355.347 27.979 Q 352.393 29.395 350.342 32.031 Q 348.291 34.668 347.217 38.379 Q 346.143 42.09 346.143 46.68 L 346.143 75.977 L 341.162 75.977 L 341.162 22.9 L 345.41 22.9 L 345.898 32.91 L 346.191 32.91 Q 347.412 29.834 349.634 27.368 A 16.432 16.432 0 0 1 355.017 23.443 A 19.507 19.507 0 0 1 355.029 23.438 A 15.792 15.792 0 0 1 359.573 22.146 A 20.151 20.151 0 0 1 362.256 21.973 Q 364.355 21.973 366.211 22.217 A 27.657 27.657 0 0 1 368.594 22.633 A 23.323 23.323 0 0 1 369.678 22.9 Z M 131.92 55.766 A 43.398 43.398 0 0 0 132.373 49.365 A 43.958 43.958 0 0 0 131.912 42.865 A 32.78 32.78 0 0 0 129.785 35.059 Q 127.197 28.857 122.046 25.366 A 17.912 17.912 0 0 0 121.853 25.237 Q 118.842 23.253 114.973 22.44 A 28.151 28.151 0 0 0 109.18 21.875 Q 101.709 21.875 96.362 25.171 Q 91.016 28.467 88.159 34.644 A 26.121 26.121 0 0 0 87.864 35.306 Q 85.303 41.274 85.303 49.365 Q 85.303 55.566 86.865 60.62 A 29.442 29.442 0 0 0 87.737 63.06 A 24.338 24.338 0 0 0 91.431 69.336 A 20.188 20.188 0 0 0 98.779 74.976 A 21.202 21.202 0 0 0 103.43 76.459 A 26.861 26.861 0 0 0 108.691 76.953 A 29.518 29.518 0 0 0 113.379 76.597 A 21.919 21.919 0 0 0 118.97 74.951 A 20.057 20.057 0 0 0 126.367 69.287 Q 129.346 65.625 130.859 60.571 A 34.426 34.426 0 0 0 131.92 55.766 Z M 270.557 0 L 270.557 75.977 L 265.576 75.977 L 265.576 0 L 270.557 0 Z M 90.381 49.365 A 41.388 41.388 0 0 0 90.764 55.138 Q 91.211 58.306 92.177 61.016 A 25.395 25.395 0 0 0 92.383 61.572 A 19.18 19.18 0 0 0 94.999 66.35 A 16.214 16.214 0 0 0 98.462 69.727 Q 102.539 72.656 108.789 72.656 Q 115.186 72.656 119.287 69.727 Q 123.389 66.797 125.342 61.523 A 30.421 30.421 0 0 0 126.894 55.274 A 41.53 41.53 0 0 0 127.295 49.365 A 41.201 41.201 0 0 0 126.845 43.135 A 30.932 30.932 0 0 0 125.439 37.451 Q 123.584 32.227 119.58 29.224 A 14.328 14.328 0 0 0 114.387 26.816 Q 112.374 26.314 110.016 26.235 A 26.6 26.6 0 0 0 109.131 26.221 A 22.011 22.011 0 0 0 103.435 26.915 A 15.132 15.132 0 0 0 95.142 32.373 A 20.938 20.938 0 0 0 91.685 39.302 Q 90.381 43.691 90.381 49.365 Z M 184.033 50.146 L 184.033 49.365 A 51.194 51.194 0 0 0 183.657 42.934 Q 183.261 39.819 182.45 37.256 A 20.302 20.302 0 0 0 180.078 32.153 A 12.764 12.764 0 0 0 172.054 26.699 A 21.008 21.008 0 0 0 167.187 26.172 A 20.18 20.18 0 0 0 161.489 26.932 A 14.779 14.779 0 0 0 153.687 32.324 A 20.204 20.204 0 0 0 150.624 38.373 Q 149.023 43.329 149.023 50.195 Q 149.023 57.154 150.761 61.997 A 18.186 18.186 0 0 0 153.394 66.943 A 14.002 14.002 0 0 0 161.554 72.091 A 22.387 22.387 0 0 0 166.748 72.656 Q 176.123 72.656 180.078 66.821 A 20.005 20.005 0 0 0 182.602 61.377 Q 184.033 56.667 184.033 50.146 Z M 319.189 54.199 L 319.189 48.975 L 309.912 49.365 Q 299.805 49.854 294.531 52.979 Q 289.756 55.808 289.305 61.2 A 13.828 13.828 0 0 0 289.258 62.354 A 12.81 12.81 0 0 0 289.626 65.518 A 8.607 8.607 0 0 0 292.407 70.068 A 10.492 10.492 0 0 0 296.311 72.124 Q 297.85 72.577 299.688 72.704 A 21.475 21.475 0 0 0 301.172 72.754 Q 308.123 72.754 312.464 69.604 A 14.067 14.067 0 0 0 314.526 67.773 A 16.804 16.804 0 0 0 318.455 60.362 Q 319.114 57.775 319.182 54.72 A 31.601 31.601 0 0 0 319.189 54.199 Z" vector-effect="non-scaling-stroke"/>
  </g>
  <path d="M 244.555 18.837 L 244.555 313.495 L 150.697 313.495 C 127.232 313.495 103.767 288.941 103.767 264.386 L 103.767 67.947 C 103.767 43.392 127.232 18.837 150.697 18.837 L 244.555 18.837 Z M 268.02 18.837 L 268.02 117.058 L 408.809 117.058 L 408.809 67.947 C 408.809 43.392 385.344 18.837 361.879 18.837 L 268.02 18.837 Z M 268.02 141.611 L 268.02 313.495 L 361.879 313.495 C 385.344 313.495 408.809 288.941 408.809 264.386 L 408.809 141.611 L 268.02 141.611 M 256.288 178.443" fill="#ff8000" style=""/>
  <g id="g-1" stroke-linecap="round" fill-rule="evenodd" font-size="9pt" stroke="#ff8000" stroke-width="0.25mm" fill="#ff8000" style="stroke: rgb(255, 128, 0); stroke-width: 0.25mm; fill: rgb(255, 128, 0);" transform="matrix(1.3758, 0, 0, 1.40938, 152.654877, 428.052704)">
    <path d="M 17.834 10.083 L 17.834 18.994 L 16.626 18.994 L 16.626 10.132 Q 16.626 8.289 15.784 7.422 Q 14.941 6.555 13.562 6.555 A 5.211 5.211 0 0 0 12.333 6.692 A 3.496 3.496 0 0 0 10.602 7.66 A 3.349 3.349 0 0 0 9.876 8.855 Q 9.534 9.791 9.534 11.133 L 9.534 18.994 L 8.313 18.994 L 8.313 10.132 A 6.498 6.498 0 0 0 8.263 9.303 Q 8.209 8.879 8.094 8.525 A 3.151 3.151 0 0 0 7.928 8.112 A 2.901 2.901 0 0 0 7.469 7.425 A 2.433 2.433 0 0 0 6.86 6.94 A 2.95 2.95 0 0 0 5.884 6.605 A 3.911 3.911 0 0 0 5.249 6.555 Q 4.016 6.555 3.113 7.062 A 3.191 3.191 0 0 0 1.937 8.218 A 4.11 4.11 0 0 0 1.721 8.624 Q 1.324 9.484 1.25 10.72 A 9.79 9.79 0 0 0 1.233 11.304 L 1.233 18.994 L 0 18.994 L 0 5.725 L 1.001 5.725 L 1.184 7.898 L 1.257 7.898 A 4.67 4.67 0 0 1 2.035 6.806 A 5.296 5.296 0 0 1 2.136 6.702 Q 2.686 6.152 3.497 5.811 Q 4.309 5.469 5.408 5.469 A 5.295 5.295 0 0 1 6.555 5.587 A 3.887 3.887 0 0 1 7.831 6.11 A 3.239 3.239 0 0 1 9.072 7.612 A 4.239 4.239 0 0 1 9.216 8.008 L 9.302 8.008 Q 9.839 6.812 10.968 6.14 A 4.653 4.653 0 0 1 12.475 5.58 A 6.421 6.421 0 0 1 13.696 5.469 Q 15.613 5.469 16.724 6.58 A 3.366 3.366 0 0 1 17.493 7.823 Q 17.685 8.348 17.769 8.997 A 8.47 8.47 0 0 1 17.834 10.083 Z M 81.946 16.541 L 81.86 16.541 A 69.39 69.39 0 0 1 81.908 17.619 A 78.51 78.51 0 0 1 81.921 17.993 A 48.577 48.577 0 0 1 81.94 18.729 A 40.56 40.56 0 0 1 81.946 19.421 L 81.946 24.866 L 80.701 24.866 L 80.701 5.725 L 81.726 5.725 L 81.873 8.374 L 81.946 8.374 A 5.234 5.234 0 0 1 82.659 7.201 A 6.068 6.068 0 0 1 82.874 6.946 A 4.162 4.162 0 0 1 83.989 6.068 A 5.046 5.046 0 0 1 84.387 5.872 A 4.52 4.52 0 0 1 85.391 5.569 Q 85.867 5.482 86.41 5.47 A 7.791 7.791 0 0 1 86.572 5.469 A 6.106 6.106 0 0 1 88.266 5.691 A 4.484 4.484 0 0 1 90.546 7.19 A 5.499 5.499 0 0 1 91.484 8.933 Q 91.749 9.717 91.865 10.675 A 13.271 13.271 0 0 1 91.956 12.268 A 12.513 12.513 0 0 1 91.849 13.948 Q 91.731 14.819 91.482 15.556 A 6.82 6.82 0 0 1 91.284 16.071 A 5.884 5.884 0 0 1 90.515 17.383 A 4.714 4.714 0 0 1 89.374 18.433 A 4.926 4.926 0 0 1 87.461 19.156 A 6.55 6.55 0 0 1 86.401 19.238 A 6.72 6.72 0 0 1 85.414 19.169 Q 84.818 19.081 84.32 18.878 A 4.503 4.503 0 0 1 83.397 18.376 A 3.795 3.795 0 0 1 82.849 17.902 A 4.565 4.565 0 0 1 81.946 16.541 Z M 139.771 16.541 L 139.685 16.541 A 69.39 69.39 0 0 1 139.733 17.619 A 78.51 78.51 0 0 1 139.746 17.993 A 48.577 48.577 0 0 1 139.764 18.729 A 40.56 40.56 0 0 1 139.771 19.421 L 139.771 24.866 L 138.525 24.866 L 138.525 5.725 L 139.551 5.725 L 139.697 8.374 L 139.771 8.374 A 5.234 5.234 0 0 1 140.483 7.201 A 6.068 6.068 0 0 1 140.698 6.946 A 4.162 4.162 0 0 1 141.813 6.068 A 5.046 5.046 0 0 1 142.212 5.872 A 4.52 4.52 0 0 1 143.216 5.569 Q 143.692 5.482 144.235 5.47 A 7.791 7.791 0 0 1 144.397 5.469 A 6.106 6.106 0 0 1 146.09 5.691 A 4.484 4.484 0 0 1 148.37 7.19 A 5.499 5.499 0 0 1 149.309 8.933 Q 149.574 9.717 149.69 10.675 A 13.271 13.271 0 0 1 149.78 12.268 A 12.513 12.513 0 0 1 149.674 13.948 Q 149.556 14.819 149.306 15.556 A 6.82 6.82 0 0 1 149.109 16.071 A 5.884 5.884 0 0 1 148.34 17.383 A 4.714 4.714 0 0 1 147.198 18.433 A 4.926 4.926 0 0 1 145.286 19.156 A 6.55 6.55 0 0 1 144.226 19.238 A 6.72 6.72 0 0 1 143.239 19.169 Q 142.643 19.081 142.145 18.878 A 4.503 4.503 0 0 1 141.221 18.376 A 3.795 3.795 0 0 1 140.674 17.902 A 4.565 4.565 0 0 1 139.771 16.541 Z M 57.8 10.095 L 57.8 18.994 L 56.848 18.994 L 56.628 16.675 L 56.555 16.675 A 5.79 5.79 0 0 1 55.518 17.999 A 4.136 4.136 0 0 1 54.473 18.716 A 5.041 5.041 0 0 1 54.022 18.909 Q 53.277 19.186 52.26 19.23 A 9.099 9.099 0 0 1 51.868 19.238 A 6.462 6.462 0 0 1 50.888 19.168 Q 50.216 19.065 49.677 18.811 A 3.246 3.246 0 0 1 48.593 18.006 A 3.143 3.143 0 0 1 48.273 17.566 A 3.336 3.336 0 0 1 47.86 16.47 A 4.659 4.659 0 0 1 47.778 15.576 A 3.777 3.777 0 0 1 48.018 14.201 Q 48.374 13.282 49.26 12.669 A 4.329 4.329 0 0 1 49.414 12.567 A 6.222 6.222 0 0 1 50.84 11.92 Q 51.518 11.703 52.337 11.573 A 15.797 15.797 0 0 1 54.113 11.401 L 56.58 11.279 L 56.58 10.315 Q 56.58 8.49 55.934 7.604 A 2.115 2.115 0 0 0 55.774 7.41 Q 55.055 6.636 53.723 6.553 A 5.291 5.291 0 0 0 53.394 6.543 Q 52.368 6.543 51.422 6.805 A 10.235 10.235 0 0 0 50.046 7.299 A 12.054 12.054 0 0 0 49.5 7.556 L 49.109 6.531 A 11.868 11.868 0 0 1 50.883 5.862 A 13.286 13.286 0 0 1 51.154 5.786 A 8.775 8.775 0 0 1 53.368 5.493 A 9.734 9.734 0 0 1 53.442 5.493 Q 54.903 5.493 55.873 5.984 A 3.214 3.214 0 0 1 56.714 6.592 A 3.298 3.298 0 0 1 57.447 7.777 Q 57.64 8.295 57.728 8.94 A 8.608 8.608 0 0 1 57.8 10.095 Z M 38.672 11.597 L 38.672 12.488 L 29.089 12.488 Q 29.089 14.363 29.684 15.641 A 4.486 4.486 0 0 0 30.353 16.687 A 4.096 4.096 0 0 0 32.67 18.023 A 6.22 6.22 0 0 0 33.972 18.152 A 12.744 12.744 0 0 0 34.955 18.116 Q 35.589 18.067 36.115 17.95 Q 36.896 17.777 37.826 17.392 A 15.388 15.388 0 0 0 38.135 17.261 L 38.135 18.396 A 9.554 9.554 0 0 1 36.548 18.953 A 8.653 8.653 0 0 1 36.182 19.037 A 9.224 9.224 0 0 1 35.202 19.181 Q 34.689 19.231 34.113 19.237 A 15.615 15.615 0 0 1 33.936 19.238 A 8.031 8.031 0 0 1 32.42 19.103 Q 31.505 18.927 30.767 18.522 A 4.886 4.886 0 0 1 30.56 18.402 A 5.22 5.22 0 0 1 28.51 16.04 A 7.548 7.548 0 0 1 27.952 14.161 A 10.274 10.274 0 0 1 27.82 12.476 Q 27.82 10.486 28.485 8.899 A 6.078 6.078 0 0 1 29.495 7.249 A 5.431 5.431 0 0 1 30.438 6.39 A 4.856 4.856 0 0 1 32.436 5.568 A 6.621 6.621 0 0 1 33.606 5.469 A 5.985 5.985 0 0 1 34.885 5.598 A 4.229 4.229 0 0 1 36.432 6.262 A 4.687 4.687 0 0 1 38.007 8.182 A 5.712 5.712 0 0 1 38.116 8.435 A 7.519 7.519 0 0 1 38.577 10.19 A 9.982 9.982 0 0 1 38.672 11.597 Z M 128.381 11.597 L 128.381 12.488 L 118.799 12.488 Q 118.799 14.363 119.393 15.641 A 4.486 4.486 0 0 0 120.062 16.687 A 4.096 4.096 0 0 0 122.379 18.023 A 6.22 6.22 0 0 0 123.682 18.152 A 12.744 12.744 0 0 0 124.664 18.116 Q 125.298 18.067 125.824 17.95 Q 126.606 17.777 127.536 17.392 A 15.388 15.388 0 0 0 127.844 17.261 L 127.844 18.396 A 9.554 9.554 0 0 1 126.257 18.953 A 8.653 8.653 0 0 1 125.891 19.037 A 9.224 9.224 0 0 1 124.911 19.181 Q 124.398 19.231 123.823 19.237 A 15.615 15.615 0 0 1 123.645 19.238 A 8.031 8.031 0 0 1 122.13 19.103 Q 121.214 18.927 120.477 18.522 A 4.886 4.886 0 0 1 120.27 18.402 A 5.22 5.22 0 0 1 118.219 16.04 A 7.548 7.548 0 0 1 117.661 14.161 A 10.274 10.274 0 0 1 117.529 12.476 Q 117.529 10.486 118.195 8.899 A 6.078 6.078 0 0 1 119.204 7.249 A 5.431 5.431 0 0 1 120.148 6.39 A 4.856 4.856 0 0 1 122.145 5.568 A 6.621 6.621 0 0 1 123.315 5.469 A 5.985 5.985 0 0 1 124.595 5.598 A 4.229 4.229 0 0 1 126.141 6.262 A 4.687 4.687 0 0 1 127.717 8.182 A 5.712 5.712 0 0 1 127.826 8.435 A 7.519 7.519 0 0 1 128.286 10.19 A 9.982 9.982 0 0 1 128.381 11.597 Z M 109.204 5.725 L 109.009 6.86 A 6.193 6.193 0 0 0 108.191 6.696 A 6.328 6.328 0 0 0 107.648 6.648 A 7.677 7.677 0 0 0 107.3 6.641 A 4.268 4.268 0 0 0 106.358 6.741 A 3.462 3.462 0 0 0 105.621 6.995 Q 104.883 7.349 104.37 8.008 Q 103.857 8.667 103.589 9.595 A 6.659 6.659 0 0 0 103.372 10.708 A 8.664 8.664 0 0 0 103.32 11.67 L 103.32 18.994 L 102.075 18.994 L 102.075 5.725 L 103.137 5.725 L 103.259 8.228 L 103.333 8.228 A 4.575 4.575 0 0 1 104.193 6.842 Q 104.749 6.226 105.542 5.859 A 3.948 3.948 0 0 1 106.678 5.536 A 5.038 5.038 0 0 1 107.349 5.493 A 8.097 8.097 0 0 1 107.981 5.517 A 6.814 6.814 0 0 1 108.337 5.554 A 6.914 6.914 0 0 1 108.933 5.658 A 5.831 5.831 0 0 1 109.204 5.725 Z M 69.8 0 L 69.8 18.994 L 68.555 18.994 L 68.555 0 L 69.8 0 Z M 81.946 12.17 L 81.946 12.378 Q 81.946 13.863 82.228 14.965 A 6.244 6.244 0 0 0 82.428 15.607 Q 82.91 16.895 83.881 17.529 A 3.761 3.761 0 0 0 85.16 18.051 Q 85.667 18.161 86.254 18.164 A 6.491 6.491 0 0 0 86.292 18.164 A 4.782 4.782 0 0 0 87.437 18.033 A 3.617 3.617 0 0 0 88.684 17.468 Q 89.661 16.772 90.173 15.454 Q 90.617 14.313 90.677 12.752 A 12.977 12.977 0 0 0 90.686 12.256 A 11.715 11.715 0 0 0 90.587 10.677 Q 90.481 9.899 90.261 9.264 A 4.693 4.693 0 0 0 89.618 8.008 A 3.455 3.455 0 0 0 87.356 6.635 A 5.305 5.305 0 0 0 86.414 6.555 A 5.705 5.705 0 0 0 85.318 6.655 Q 84.635 6.788 84.091 7.101 A 3.467 3.467 0 0 0 83.917 7.208 A 3.689 3.689 0 0 0 82.676 8.594 A 4.753 4.753 0 0 0 82.44 9.113 Q 82.034 10.166 81.961 11.613 A 12.814 12.814 0 0 0 81.946 12.17 Z M 139.771 12.17 L 139.771 12.378 Q 139.771 13.863 140.053 14.965 A 6.244 6.244 0 0 0 140.253 15.607 Q 140.735 16.895 141.705 17.529 A 3.761 3.761 0 0 0 142.984 18.051 Q 143.492 18.161 144.078 18.164 A 6.491 6.491 0 0 0 144.116 18.164 A 4.782 4.782 0 0 0 145.262 18.033 A 3.617 3.617 0 0 0 146.509 17.468 Q 147.485 16.772 147.998 15.454 Q 148.442 14.313 148.501 12.752 A 12.977 12.977 0 0 0 148.511 12.256 A 11.715 11.715 0 0 0 148.412 10.677 Q 148.306 9.899 148.086 9.264 A 4.693 4.693 0 0 0 147.443 8.008 A 3.455 3.455 0 0 0 145.181 6.635 A 5.305 5.305 0 0 0 144.238 6.555 A 5.705 5.705 0 0 0 143.143 6.655 Q 142.46 6.788 141.916 7.101 A 3.467 3.467 0 0 0 141.742 7.208 A 3.689 3.689 0 0 0 140.5 8.594 A 4.753 4.753 0 0 0 140.265 9.113 Q 139.859 10.166 139.786 11.613 A 12.814 12.814 0 0 0 139.771 12.17 Z M 29.126 11.438 L 37.39 11.438 A 8.648 8.648 0 0 0 37.299 10.151 A 6.333 6.333 0 0 0 36.975 8.875 A 4.166 4.166 0 0 0 36.474 7.914 A 3.37 3.37 0 0 0 35.724 7.147 A 3.055 3.055 0 0 0 34.57 6.633 Q 34.119 6.531 33.594 6.531 A 4.66 4.66 0 0 0 32.141 6.747 A 3.816 3.816 0 0 0 30.511 7.794 A 4.631 4.631 0 0 0 29.598 9.28 Q 29.233 10.211 29.126 11.438 Z M 118.835 11.438 L 127.1 11.438 A 8.648 8.648 0 0 0 127.008 10.151 A 6.333 6.333 0 0 0 126.685 8.875 A 4.166 4.166 0 0 0 126.184 7.914 A 3.37 3.37 0 0 0 125.433 7.147 A 3.055 3.055 0 0 0 124.279 6.633 Q 123.829 6.531 123.303 6.531 A 4.66 4.66 0 0 0 121.851 6.747 A 3.816 3.816 0 0 0 120.221 7.794 A 4.631 4.631 0 0 0 119.307 9.28 Q 118.942 10.211 118.835 11.438 Z M 56.567 13.55 L 56.567 12.244 L 54.248 12.341 Q 51.811 12.459 50.498 13.19 A 4.069 4.069 0 0 0 50.403 13.245 A 2.752 2.752 0 0 0 49.555 14 Q 49.159 14.551 49.096 15.3 A 3.457 3.457 0 0 0 49.084 15.588 A 3.203 3.203 0 0 0 49.176 16.379 A 2.152 2.152 0 0 0 49.872 17.517 A 2.623 2.623 0 0 0 50.848 18.031 Q 51.232 18.144 51.692 18.176 A 5.369 5.369 0 0 0 52.063 18.188 A 6.125 6.125 0 0 0 53.386 18.054 Q 54.249 17.864 54.886 17.401 A 3.517 3.517 0 0 0 55.402 16.943 Q 56.555 15.698 56.567 13.55 Z" vector-effect="non-scaling-stroke"/>
  </g>
</svg>